# AST/ASF file generated using VICON BodyLanguage
# -----------------------------------------------
:version 1.10
:name VICON
:units
  mass 1.0
  length 0.45
  angle deg
:documentation
   .ast/.asf automatically generated from VICON data using
   VICON BodyBuilder and BodyLanguage model FoxedUp or BRILLIANT.MOD
:root
   order TX TY TZ RX RY RZ
   axis XYZ
   position 0 0 0  
   orientation 0 0 0 
:bonedata
  begin
     id 1 
     name lhipjoint
     direction 0.700308 -0.549349 0.455834 
     length 2.59063 
     axis 0 0 0  XYZ
  end
  begin
     id 2 
     name lfemur
     direction 0.34202 -0.939693 0  
     length 6.31066  
     axis 0 0 20  XYZ
    dof rx ry rz
    limits (-160.0 20.0)
           (-70.0 70.0)
           (-60.0 70.0)
  end
  begin
     id 3 
     name ltibia
     direction 0.34202 -0.939693 0   
     length 7.36093   
     axis 0 0 20   XYZ
    dof rx
    limits (-10.0 170.0)
  end
  begin
     id 4 
     name lfoot
     direction 0.0905332 -0.248738 0.96433   
     length 2.0233   
     axis -90 7.62852e-016 20   XYZ
    dof rx rz
    limits (-45.0 90.0)
           (-70.0 20.0)
  end
  begin
     id 5 
     name ltoes
     direction 1.53573e-011 -4.21855e-011 1   
     length 1.01524   
     axis -90 7.62852e-016 20   XYZ
    dof rx
    limits (-90.0 20.0)
  end
  begin
     id 6 
     name rhipjoint
     direction -0.61416 -0.607328 0.503944   
     length 2.34332  
     axis 0 0 0  XYZ 
  end
  begin
     id 7 
     name rfemur
     direction -0.34202 -0.939693 0   
     length 6.58548   
     axis 0 0 -20   XYZ
    dof rx ry rz
    limits (-160.0 20.0)
           (-70.0 70.0)
           (-70.0 60.0)
  end
  begin
     id 8 
     name rtibia
     direction -0.34202 -0.939693 0   
     length 7.20707   
     axis 0 0 -20   XYZ
    dof rx
    limits (-10.0 170.0)
 end
 begin
     id 9 
     name rfoot
     direction -0.136772 -0.375778 0.916561   
     length 1.92184  
     axis -90 -7.62852e-016 -20   XYZ
    dof rx rz
    limits (-45.0 90.0)
           (-20.0 70.0)
  end
  begin
     id 10 
     name rtoes
     direction -1.53535e-011 -4.21828e-011 1   
     length 0.951089   
     axis -90 -7.62852e-016 -20   XYZ
    dof rx
    limits (-90.0 20.0)
  end
  begin
     id 11 
     name lowerback
     direction -0.0444974 0.988086 -0.147332   
     length 1.9609   
     axis 0 0 0   XYZ
    dof rx ry rz
    limits (-20.0 45.0)
           (-30.0 30.0)
           (-30.0 30.0)
  end
  begin
     id 12 
     name upperback
     direction 0.00613146 0.999513 0.0306081   
     length 1.94944   
     axis 0 0 0   XYZ
    dof rx ry rz
    limits (-20.0 45.0)
           (-30.0 30.0)
           (-30.0 30.0)
  end
  begin
     id 13 
     name thorax
     direction 0.0254621 0.994518 0.101418   
     length 2.0119   
     axis 0 0 0   XYZ
    dof rx ry rz
    limits (-20.0 45.0)
           (-30.0 30.0)
           (-30.0 30.0)
  end
  begin
     id 14 
     name lowerneck
     direction 0.0168698 0.977854 0.208608   
     length 1.6375   
     axis 0 0 0   XYZ
    dof rx ry rz
    limits (-20.0 45.0)
           (-30.0 30.0)
           (-30.0 30.0)
  end
  begin
     id 15 
     name upperneck
     direction -0.0283988 0.989338 -0.142843   
     length 1.6851   
     axis 0 0 0   XYZ
    dof rx ry rz
    limits (-20.0 45.0)
           (-30.0 30.0)
           (-30.0 30.0)
  end
  begin
     id 16
     name head
     direction -0.0129422 0.99741 -0.0707489  
     length 1.69029  
     axis 0 0 0   XYZ
    dof rx ry rz
    limits (-20.0 45.0)
           (-30.0 30.0)
           (-30.0 30.0)
  end
  begin
     id 17 
     name lclavicle
     direction 0.820295 0.564628 -0.0911715  
     length 3.16484  
     axis 0 0 0   XYZ
    dof ry rz
    limits (-20.0 10.0)
           (0.0 20.0)
  end
  begin
     id 18 
     name lhumerus
     direction 1 -4.48969e-011 1.00186e-027   
     length 5.17853   
     axis 180 -30 -90   XYZ
    dof rx ry rz
    limits (-60.0 90.0)
           (-90.0 90.0)
           (-90.0 90.0)
  end
  begin
     id 19
     name lradius
     direction 1 -4.48966e-011 -1.52922e-027   
     length 3.40399   
     axis 180 -30 -90   XYZ
    dof rx
    limits (-10.0 170.0)
  end
  begin
     id 20
     name lwrist
     direction 1 -4.48981e-011 -3.80893e-027   
     length 1.70199   
     axis 1.1049e-015 90 90   XYZ
    dof ry
    limits (-180.0 0.0)
 end
  begin
     id 21 
     name lhand
     direction 1 -4.48957e-011 -7.61786e-027   
     length 0.708964   
     axis 4.86085e-015 90 90   XYZ
    dof rx rz
    limits (-90.0 90.0)
           (-45.0 45.0)
  end
  begin
     id 22 
     name lfingers
     direction 1 -4.48929e-011 -1.52357e-026   
     length 0.571585   
     axis 9.7217e-015 90 90   XYZ
    dof rx
    limits (0.0 90.0)
  end
  begin
     id 23
     name lthumb
     direction 0.707107 -6.34905e-011 0.707107   
     length 0.820685   
     axis -90 45 2.85299e-015   XYZ
    dof rx rz
    limits (-45.0 45.0)
           (-45.0 45.0)
  end
  begin
     id 24 
     name rclavicle
     direction -0.858602 0.463947 -0.218075   
     length 3.35137  
     axis 0 0 0   XYZ 
    dof ry rz
    limits (-10.0 20.0)
           (-20.0 0.0)
  end
  begin
     id 25 
     name rhumerus
     direction -1 -4.48969e-011 -1.98511e-027  
     length 5.42351   
     axis 180 30 90   XYZ
    dof rx ry rz
    limits (-90.0 60.0)
           (-90.0 90.0)
           (-90.0 90.0)
  end
  begin
     id 26 
     name rradius
     direction -1 -4.48961e-011 -2.82624e-027   
     length 3.42066   
     axis 180 30 90   XYZ
    dof rx
    limits (-10.0 170.0)
  end
  begin
     id 27 
     name rwrist
     direction -1 -4.48966e-011 -3.80893e-027   
     length 1.71033   
     axis 1.1049e-015 -90 -90   XYZ
    dof ry
    limits (-180.0 0.0)
  end
  begin
     id 28
     name rhand
     direction -1 -4.48964e-011 -7.61786e-027   
     length 0.743608   
     axis 4.86085e-015 -90 -90   XYZ
    dof rx rz
    limits (-90.0 90.0)
           (-45.0 45.0)
  end
  begin
     id 29
     name rfingers
     direction -1 -4.48961e-011 -1.52357e-026   
     length 0.599516   
     axis 9.7217e-015 -90 -90   XYZ
    dof rx
    limits (0.0 90.0)
  end
  begin
     id 30
     name rthumb
     direction -0.707107 -6.34913e-011 0.707107   
     length 0.860789   
     axis -90 -45 -2.85299e-015   XYZ
    dof rx rz
    limits (-45.0 45.0)
           (-45.0 45.0)
  end
:hierarchy
  begin
    root lhipjoint rhipjoint lowerback
    lhipjoint lfemur
    lfemur ltibia
    ltibia lfoot
    lfoot ltoes
    rhipjoint rfemur
    rfemur rtibia
    rtibia rfoot
    rfoot rtoes
    lowerback upperback
    upperback thorax
    thorax lowerneck lclavicle rclavicle
    lowerneck upperneck
    upperneck head
    lclavicle lhumerus
    lhumerus lradius
    lradius lwrist
    lwrist lhand lthumb
    lhand lfingers
    rclavicle rhumerus
    rhumerus rradius
    rradius rwrist
    rwrist rhand rthumb
    rhand rfingers
  end

#!OML:ASF E:\mmandel\Project 1\Capture day 1\Session 2\Subject.ASF
:FULLY-SPECIFIED
:DEGREES
207
root -4.44414 3.07619 0.421778 137.896 4.47415 -94.1232
lowerback 30.0698 -0.948275 -6.17475
upperback 6.76299 -3.54793 2.51586
thorax -8.32 -1.90291 7.7668
lowerneck -10.1983 -5.81992 4.57118
upperneck 17.4778 -0.0723455 -33.8526
head 7.0002 -2.0218 -12.9239
rclavicle 1.27222e-014 -3.81667e-014
rhumerus 39.8703 61.2986 -80.9104
rradius 53.7393
rwrist -31.7639
rhand -32.0621 34.1615
rfingers 7.12502
rthumb -5.30868 4.24803
lclavicle 1.27222e-014 -3.81667e-014
lhumerus 55.9708 -1.32777 58.2817
lradius 20.6188
lwrist -47.5041
lhand -3.1486 -6.11644
lfingers 7.12502
lthumb 22.5713 22.5841
rfemur -64.4786 7.2985 25.6954
rtibia 114.622
rfoot 6.00668 1.10256
rtoes -15.6262
lfemur -11.0524 5.05311 -22.4674
ltibia 37.6728
lfoot 7.66664 4.40449
ltoes 14.7406
208
root -4.42826 3.07053 0.433755 138.087 4.87201 -94.4276
lowerback 29.8502 -0.869565 -6.28618
upperback 6.76058 -3.47129 2.51182
thorax -8.22276 -1.87105 7.78505
lowerneck -10.1586 -5.73877 4.64598
upperneck 17.5668 0.0909648 -33.9242
head 7.05705 -1.93803 -12.9732
rclavicle -4.77083e-014 1.04958e-013
rhumerus 40.2241 61.5222 -80.4928
rradius 53.8885
rwrist -31.6383
rhand -32.0039 34.3496
rfingers 7.12502
rthumb -5.2525 4.43475
lclavicle -4.77083e-014 1.04958e-013
lhumerus 55.9585 -0.887264 58.4756
lradius 20.4882
lwrist -47.8141
lhand -3.13144 -6.20696
lfingers 7.12502
lthumb 22.5878 22.4915
rfemur -64.165 7.22056 25.4862
rtibia 115.172
rfoot 6.79343 1.1528
rtoes -10.6672
lfemur -11.4137 5.47188 -22.4272
ltibia 37.8539
lfoot 7.53908 4.42231
ltoes 14.7339
209
root -4.41663 3.06217 0.453135 138.317 5.16022 -94.7792
lowerback 29.6822 -0.820433 -6.36758
upperback 6.74724 -3.43351 2.39506
thorax -8.16667 -1.85307 7.67357
lowerneck -10.4207 -5.65154 5.03507
upperneck 17.8769 0.307465 -34.1605
head 7.25244 -1.86123 -13.2053
rclavicle -3.49861e-014 -5.725e-014
rhumerus 40.7319 61.6475 -80.0931
rradius 53.998
rwrist -31.5141
rhand -31.9668 34.3747
rfingers 7.12502
rthumb -5.21671 4.45889
lclavicle -3.49861e-014 -5.725e-014
lhumerus 55.9778 -0.675875 58.177
lradius 20.4841
lwrist -47.7383
lhand -3.12743 -6.12794
lfingers 7.12502
lthumb 22.5917 22.5701
rfemur -63.9247 6.9966 25.1221
rtibia 115.674
rfoot 6.9208 1.18753
rtoes -10.0857
lfemur -11.8245 5.68302 -22.5676
ltibia 37.9569
lfoot 7.62971 4.61193
ltoes 15.0455
210
root -4.41274 3.05368 0.481872 138.557 5.58965 -94.8546
lowerback 29.6052 -0.833618 -6.1498
upperback 6.67507 -3.38435 2.34336
thorax -8.23837 -1.82518 7.46867
lowerneck -10.3458 -5.61628 5.3851
upperneck 17.9587 0.322468 -34.2991
head 7.25542 -1.83772 -13.3476
rclavicle 4.13472e-014 -1.06549e-013
rhumerus 40.9478 61.7191 -79.9841
rradius 54.0517
rwrist -31.2457
rhand -31.5124 34.3717
rfingers 7.12502
rthumb -4.77793 4.44562
lclavicle 4.13472e-014 -1.06549e-013
lhumerus 55.9723 -0.520602 57.9909
lradius 20.3889
lwrist -47.782
lhand -3.18293 -6.10356
lfingers 7.12502
lthumb 22.5384 22.6009
rfemur -63.6372 6.79152 25.1066
rtibia 116.05
rfoot 6.49032 1.02977
rtoes -13.4222
lfemur -12.2009 5.91748 -22.3639
ltibia 37.9864
lfoot 7.80171 4.71852
ltoes 14.9469
211
root -4.40719 3.04828 0.506202 138.718 6.07205 -94.902
lowerback 29.5236 -0.823254 -6.05238
upperback 6.62693 -3.33194 2.40945
thorax -8.264 -1.79935 7.46701
lowerneck -10.1894 -5.5921 5.47011
upperneck 17.9691 0.351268 -34.3597
head 7.23012 -1.80593 -13.3846
rclavicle -6.36111e-015 1.63799e-013
rhumerus 41.2643 61.9529 -79.6362
rradius 54.1352
rwrist -30.8043
rhand -31.0957 34.4037
rfingers 7.12502
rthumb -4.37555 4.46888
lclavicle -6.36111e-015 1.63799e-013
lhumerus 55.8778 -0.148789 58.0978
lradius 20.2227
lwrist -48.0027
lhand -3.32708 -6.21242
lfingers 7.12502
lthumb 22.4 22.5088
rfemur -63.216 6.63439 25.2055
rtibia 116.371
rfoot 6.07719 0.810955
rtoes -15.9677
lfemur -12.449 6.29735 -22.0684
ltibia 37.9991
lfoot 7.85764 4.74365
ltoes 14.5529
